<svg xmlns="http://www.w3.org/2000/svg" width="1200" height="630" viewBox="0 0 1200 630"><defs><linearGradient id="g" x1="0" x2="1" y1="0" y2="1"><stop stop-color="#061d45"/><stop offset="1" stop-color="#1457c8"/></linearGradient></defs><rect width="1200" height="630" fill="url(#g)"/><g transform="translate(100 118)" fill="none" stroke="#9cc5ff" stroke-width="16" stroke-linecap="round" stroke-linejoin="round"><path fill="#fff" fill-opacity=".12" d="M64 20h180a52 52 0 0 1 52 52v154a78 78 0 0 1-78 78H90a78 78 0 0 1-78-78V72a52 52 0 0 1 52-52Z"/><path d="M72 132h164M92 205h1M216 205h1M90 304l-35 43M218 304l35 43M154 20V0M120 0h68"/></g><text x="100" y="490" fill="#fff" font-family="Arial, sans-serif" font-size="66" font-weight="700">TrainPOS</text><text x="100" y="552" fill="#c8ddff" font-family="Arial, sans-serif" font-size="32">Railway food order management software</text></svg>
